<svg width="22" height="22" viewBox="0 0 22 22" fill="none" xmlns="http://www.w3.org/2000/svg">
<path d="M20.9015 16.9968L16.159 12.6848C15.9348 12.481 15.6402 12.3724 15.3374 12.3817C15.0346 12.3911 14.7473 12.5177 14.5361 12.735L11.7443 15.6061C11.0723 15.4778 9.7213 15.0566 8.33063 13.6694C6.93996 12.2776 6.5188 10.9231 6.39396 10.2558L9.2628 7.46278C9.48028 7.25177 9.60712 6.96441 9.61648 6.66152C9.62585 6.35864 9.51699 6.064 9.31296 5.83995L5.00213 1.09862C4.79801 0.873866 4.51432 0.737538 4.21131 0.718586C3.90829 0.699634 3.60983 0.799551 3.3793 0.997116L0.84763 3.16828C0.645926 3.37072 0.525536 3.64014 0.509296 3.92545C0.491796 4.21712 0.15813 11.1261 5.51546 16.4858C10.1891 21.1583 16.0435 21.5001 17.6558 21.5001C17.8915 21.5001 18.0361 21.4931 18.0746 21.4908C18.3599 21.4748 18.6292 21.3539 18.8306 21.1513L21.0006 18.6185C21.199 18.3887 21.2996 18.0904 21.2811 17.7874C21.2626 17.4844 21.1263 17.2007 20.9015 16.9968Z" fill="white"/>
</svg>
