<svg width="28" height="24" viewBox="0 0 28 24" fill="none" xmlns="http://www.w3.org/2000/svg">
<path d="M24.1584 15.1543C24.024 14.2205 23.303 13.4924 22.3748 13.2754C18.767 12.4298 17.8626 10.3522 17.71 8.04785C17.0702 7.92885 15.932 7.80005 14 7.80005C12.068 7.80005 10.9298 7.92885 10.29 8.04785C10.1374 10.3522 9.23304 12.4298 5.62524 13.2754C4.69704 13.4938 3.97604 14.2205 3.84164 15.1543L3.14584 19.973C2.90084 21.6698 4.14684 23.2001 5.88004 23.2001H22.12C23.8518 23.2001 25.0992 21.6698 24.8542 19.973L24.1584 15.1543ZM14 19.6889C12.047 19.6889 10.4636 18.1208 10.4636 16.1888C10.4636 14.2568 12.047 12.6888 14 12.6888C15.953 12.6888 17.5364 14.2568 17.5364 16.1888C17.5364 18.1208 15.9516 19.6889 14 19.6889ZM27.93 6.40005C27.8964 4.30005 22.5512 0.801449 14 0.800049C5.44744 0.801449 0.10224 4.30005 0.0700401 6.40005C0.0378401 8.50005 0.0994402 11.2328 3.61904 10.7778C7.73644 10.2444 7.48304 8.80665 7.48304 6.75145C7.48304 5.31785 10.8318 4.97205 14 4.97205C17.1682 4.97205 20.5156 5.31785 20.517 6.75145C20.517 8.80665 20.2636 10.2444 24.381 10.7778C27.8992 11.2328 27.9622 8.50005 27.93 6.40005Z" fill="white"/>
</svg>
