<svg width="85" height="75" viewBox="0 0 85 75" fill="none" xmlns="http://www.w3.org/2000/svg">
<path d="M79.2144 26.1556C79.3279 26.0945 79.4659 26.1015 79.5726 26.1738C79.8322 26.318 81.0784 27.2758 82.2243 32.3014C80.9478 32.3545 79.2933 32.4669 77.3672 32.7158C77.3869 32.1496 77.3915 31.5971 77.393 31.0826C77.4006 27.9376 77.5539 26.7886 79.2144 26.1556Z" fill="black"/>
<path d="M74.0715 36.9899C74.2262 36.5383 74.6172 36.2086 75.0885 36.1323C75.3693 36.0747 75.6471 36.0337 75.9552 35.9806C78.6056 35.5327 81.2877 35.2977 83.9756 35.2778H84.0758C84.4464 35.2525 84.774 35.5172 84.8271 35.8849C85.1769 38.9061 85.0405 41.9639 84.4233 44.942C83.8503 47.1077 82.962 49.1775 81.7868 51.0848C79.4883 46.8372 76.3297 43.1152 72.5127 40.1562C73.1692 39.1739 73.6933 38.1093 74.0715 36.9899Z" fill="black"/>
<path d="M59.4179 43.4576L67.027 40.5509C75.152 43.746 80.0805 54.1691 80.9912 56.1241C80.1519 57.5752 77.4501 61.2378 70.5044 63.888C68.124 64.825 65.6153 65.3956 63.0638 65.5804H61.0618C60.0023 65.5316 58.954 65.3428 57.9441 65.0188C57.8576 64.6469 57.7407 64.1369 57.6238 63.5237C56.9013 59.7639 55.64 50.3153 59.4179 43.4576Z" fill="black"/>
<path d="M54.2363 61.6339C52.1933 60.9584 50.2709 59.9619 48.5413 58.6817C46.2784 56.7878 44.3524 54.5246 42.8448 51.9879C42.6645 51.6002 42.7781 51.1393 43.118 50.8799C43.1377 50.8617 43.1575 50.8435 43.1742 50.8253C45.2669 49.0222 47.4951 47.3827 49.8391 45.9211C50.0804 45.7693 50.3218 45.6069 50.6147 45.4369C50.9683 45.2068 51.4216 45.1968 51.785 45.4111C52.7352 46.0135 53.7645 46.4809 54.8435 46.7999C53.6586 51.6553 53.4522 56.698 54.2363 61.6339Z" fill="black"/>
<path d="M41.0976 40.8818C41.1452 40.7212 41.269 40.5945 41.4285 40.5433C43.0374 39.9361 43.7735 40.6617 45.6481 43.0644C45.9699 43.4758 46.3144 43.916 46.6848 44.3576C45.0303 45.4672 43.6688 46.4963 42.6397 47.3251C41.0611 43.8067 40.7788 41.7044 41.0976 40.8818Z" fill="black"/>
<path d="M0 43.526C0 37.5411 0.8925 30.6697 7.84732 30.6697C9.30569 30.6624 10.7558 30.8884 12.1429 31.3391V34.601C10.7935 33.9926 9.32736 33.6869 7.84732 33.7054C3.40304 33.7054 3.03571 38.3516 3.03571 43.526C3.03571 48.7823 4.83437 51.9197 7.84732 51.9197C9.31116 51.9047 10.7625 51.6483 12.1429 51.1608V51.9197C12.1493 52.7131 12.2132 53.505 12.3341 54.2891C10.8769 54.7194 9.36668 54.9437 7.84732 54.9554C2.93402 54.9554 0 50.6827 0 43.526Z" fill="black"/>
<path d="M15.5324 54.9871C15.2963 53.9817 15.1776 52.9523 15.1787 51.9195V27.6338C15.1787 26.7955 15.8583 26.116 16.6966 26.116H50.0894C50.9277 26.116 51.6073 26.7955 51.6073 27.6338V42.2736C50.8119 42.1995 50.012 42.3576 49.3047 42.7289C48.866 42.228 48.4441 41.712 48.0418 41.1959C46.3221 38.992 44.1865 36.2431 40.3493 37.7048C39.3873 38.0598 38.6276 38.8162 38.2684 39.7767C37.4776 41.8152 38.1667 45.027 40.3311 49.538C39.5378 50.7633 39.5113 52.3333 40.2628 53.5846C41.9617 56.4296 44.1324 58.9647 46.6818 61.0813C46.9475 61.2862 47.2222 61.4729 47.4969 61.6612C44.9555 64.1768 41.5225 65.5856 37.9466 65.5803H28.8394C22.4686 65.6064 16.9354 61.2017 15.5324 54.9871Z" fill="black"/>
<path d="M84.9999 71.6518C84.9999 73.2972 82.8749 74.6876 80.3704 74.6876H10.7008C8.19629 74.6876 6.07129 73.2972 6.07129 71.6518V68.7543C6.23134 68.6579 6.41584 68.61 6.60254 68.6161H84.4686C84.6553 68.61 84.8398 68.6579 84.9999 68.7543V71.6518Z" fill="black"/>
<path d="M31.8745 18.5268C31.0362 18.5268 30.3566 17.8472 30.3566 17.0089C30.3433 15.2492 31.0055 13.5515 32.2069 12.2656C32.9657 11.5129 33.3925 10.4884 33.3925 9.41964C33.3925 8.35087 32.9657 7.32634 32.2069 6.57366C31.0055 5.28782 30.3433 3.59005 30.3566 1.83036C30.3566 0.992068 31.0362 0.3125 31.8745 0.3125C32.7128 0.3125 33.3924 0.992068 33.3924 1.83036C33.3823 2.9011 33.8106 3.92937 34.5778 4.67634C37.0449 7.35735 37.0449 11.4819 34.5778 14.1629C33.8106 14.9099 33.3823 15.9382 33.3924 17.0089C33.3924 17.8472 32.7128 18.5268 31.8745 18.5268Z" fill="black"/>
<path d="M22.7681 18.5268C21.9298 18.5268 21.2502 17.8472 21.2502 17.0089C21.2368 15.2492 21.8991 13.5515 23.1005 12.2656C23.8593 11.5129 24.2861 10.4884 24.2861 9.41964C24.2861 8.35087 23.8593 7.32634 23.1005 6.57366C21.8991 5.28782 21.2368 3.59005 21.2502 1.83036C21.2502 0.992068 21.9298 0.3125 22.7681 0.3125C23.6063 0.3125 24.2859 0.992068 24.2859 1.83036C24.2758 2.9011 24.7041 3.92937 25.4714 4.67634C27.9384 7.35735 27.9384 11.4819 25.4714 14.1629C24.7041 14.9099 24.2758 15.9382 24.2859 17.0089C24.2859 17.8472 23.6063 18.5268 22.7681 18.5268Z" fill="black"/>
<path d="M40.9819 18.5268C40.1436 18.5268 39.4641 17.8472 39.4641 17.0089C39.4507 15.2492 40.113 13.5515 41.3143 12.2656C42.0731 11.5129 42.4999 10.4884 42.4999 9.41964C42.4999 8.35087 42.0731 7.32634 41.3143 6.57366C40.113 5.28782 39.4507 3.59005 39.4641 1.83036C39.4641 0.992068 40.1436 0.3125 40.9819 0.3125C41.8202 0.3125 42.4998 0.992068 42.4998 1.83036C42.4897 2.9011 42.918 3.92937 43.6852 4.67634C46.1523 7.35735 46.1523 11.4819 43.6852 14.1629C42.918 14.9099 42.4897 15.9382 42.4998 17.0089C42.4998 17.8472 41.8202 18.5268 40.9819 18.5268Z" fill="black"/>
</svg>
