<svg width="76" height="75" viewBox="0 0 76 75" fill="none" xmlns="http://www.w3.org/2000/svg">
<path fill-rule="evenodd" clip-rule="evenodd" d="M38.137 74.7902C17.472 74.7902 0.666992 58.1102 0.666992 37.6002C0.666992 17.0902 17.472 0.410156 38.137 0.410156C58.802 0.410156 75.612 17.0902 75.612 37.6002C75.612 58.1102 58.802 74.7902 38.137 74.7902ZM38.217 4.69016C29.5052 4.70074 21.1533 8.16617 14.9932 14.3263C8.833 20.4865 5.36758 28.8384 5.35699 37.5502C5.36625 46.2628 8.8311 54.616 14.9914 60.7772C21.1517 66.9385 29.5044 70.4046 38.217 70.4152C46.9305 70.4059 55.2845 66.9404 61.4458 60.779C67.6072 54.6176 71.0727 46.2637 71.082 37.5502C71.0714 28.8375 67.6053 20.4848 61.4441 14.3246C55.2828 8.16426 46.9296 4.69942 38.217 4.69016Z" fill="black"/>
<path fill-rule="evenodd" clip-rule="evenodd" d="M35.667 3.66125H40.277V74.0812H35.667V3.66125Z" fill="black"/>
<path fill-rule="evenodd" clip-rule="evenodd" d="M1.33398 35H71.134V39.61H1.33398V35Z" fill="black"/>
<path fill-rule="evenodd" clip-rule="evenodd" d="M6.33398 20.0001H68.364V24.5301H6.33398V20.0001Z" fill="black"/>
<path fill-rule="evenodd" clip-rule="evenodd" d="M6.33398 49.9999H68.364V54.6099H6.33398V49.9999Z" fill="black"/>
<path fill-rule="evenodd" clip-rule="evenodd" d="M37.2518 74.2691C24.2668 67.9041 15.8818 53.3091 15.8818 37.0841C15.8818 21.2341 23.9968 6.77415 36.5718 0.249146L38.8768 4.68415C27.9418 10.3691 20.8818 23.0841 20.8818 37.0841C20.8818 51.4091 28.1768 64.2441 39.4518 69.7741L37.2518 74.2691Z" fill="black"/>
<path fill-rule="evenodd" clip-rule="evenodd" d="M39.3665 73.9449L37.0215 69.5299C47.7165 63.8599 54.6265 51.1249 54.6265 37.0849C54.6265 23.2099 47.8315 10.5349 37.3265 4.79992L39.7215 0.414917C51.8115 7.00492 59.6265 21.3999 59.6265 37.0849C59.6315 52.9599 51.6715 67.4249 39.3665 73.9449Z" fill="black"/>
</svg>
