<svg width="24" height="24" viewBox="0 0 24 24" fill="none" xmlns="http://www.w3.org/2000/svg">
<path d="M16.0251 11.895C15.8967 9.31665 13.9834 7.76498 11.6734 7.76498H11.5801C8.90839 7.76498 7.43839 9.86498 7.43839 12.245C7.43839 14.9166 9.22339 16.6083 11.5684 16.6083C14.1934 16.6083 15.9084 14.6833 16.0367 12.42L16.0251 11.895ZM11.5917 5.45498C13.3767 5.45498 15.0567 6.24832 16.2817 7.48498C16.2817 6.88998 16.6667 6.44665 17.2501 6.44665H17.3784C18.2417 6.44665 18.4167 7.26331 18.4167 7.51998V16.7366C18.3701 17.3433 19.0467 17.6466 19.4317 17.25C20.9134 15.745 22.6751 9.44498 18.5101 5.80498C14.6251 2.39832 9.41006 2.95832 6.63339 4.87165C3.69339 6.90165 1.80339 11.4166 3.63506 15.6283C5.63006 20.2366 11.3467 21.6133 14.7417 20.2366C16.4684 19.5483 17.2501 21.87 15.5001 22.6283C12.7701 23.7833 5.26839 23.6666 1.75672 17.5883C-0.611611 13.4816 -0.494945 6.25998 5.79339 2.51498C10.6117 -0.343351 16.9467 0.449982 20.7501 4.41665C24.7751 8.61665 24.5417 16.4333 20.6334 19.4783C18.8717 20.855 16.2467 19.5133 16.2701 17.495L16.2467 16.8416C15.6373 17.4561 14.9122 17.9437 14.1132 18.2761C13.3141 18.6085 12.4571 18.7792 11.5917 18.7783C8.06839 18.7783 5.00006 15.675 5.00006 12.1516C5.00006 8.59332 8.06839 5.45498 11.5917 5.45498Z" fill="white"/>
</svg>
