<svg width="85" height="85" viewBox="0 0 85 85" fill="none" xmlns="http://www.w3.org/2000/svg">
<path d="M27.5867 19.4971C32.5101 18.6285 37.5009 18.1986 42.4999 18.2142C47.4974 18.1986 52.4868 18.6277 57.408 19.4971C68.3168 21.4277 77.0097 25.4788 81.0244 30.357H3.97538C7.99014 25.4788 16.6815 21.4277 27.5867 19.4971Z" fill="black"/>
<path d="M83.4821 33.3929H1.51785C0.679626 33.3929 0 34.0726 0 34.9108V37.9465C0 38.7847 0.679626 39.4644 1.51785 39.4644H83.4821C84.3204 39.4644 85 38.7847 85 37.9465V34.9108C85 34.0726 84.3204 33.3929 83.4821 33.3929Z" fill="black"/>
<path d="M40.9826 0H44.0183C44.8565 0 45.5361 0.679626 45.5361 1.51786V15.1786H39.4647V1.51786C39.4647 0.679626 40.1443 0 40.9826 0Z" fill="black"/>
<path d="M72.8576 49.197C75.0069 51.4553 77.4111 54.5688 77.4111 56.1608C77.4111 58.6755 75.3723 60.7144 72.8576 60.7144C70.3429 60.7144 68.304 58.6755 68.304 56.1608C68.304 54.5658 70.7068 51.4449 72.8576 49.197Z" fill="black"/>
<path d="M42.5001 49.197C44.6494 51.4553 47.0537 54.5688 47.0537 56.1608C47.0537 58.6755 45.0148 60.7144 42.5001 60.7144C39.9854 60.7144 37.9466 58.6755 37.9466 56.1608C37.9466 54.5658 40.3493 51.4449 42.5001 49.197Z" fill="black"/>
<path d="M12.1427 49.197C14.292 51.4553 16.6963 54.5688 16.6963 56.1608C16.6963 58.6755 14.6574 60.7144 12.1427 60.7144C9.62802 60.7144 7.58913 58.6755 7.58913 56.1608C7.58913 54.5658 9.99192 51.4449 12.1427 49.197Z" fill="black"/>
<path d="M57.6789 73.4827C59.8282 75.7409 62.2324 78.8545 62.2324 80.4464C62.2324 82.9611 60.1935 85 57.6789 85C55.1642 85 53.1253 82.9611 53.1253 80.4464C53.1253 78.8515 55.5281 75.7305 57.6789 73.4827Z" fill="black"/>
<path d="M27.3214 73.4827C29.4707 75.7409 31.875 78.8545 31.875 80.4464C31.875 82.9611 29.8361 85 27.3214 85C24.8067 85 22.7679 82.9611 22.7679 80.4464C22.7679 78.8515 25.1706 75.7305 27.3214 73.4827Z" fill="black"/>
</svg>
