<svg width="40" height="40" viewBox="0 0 40 40" fill="none" xmlns="http://www.w3.org/2000/svg">
<circle cx="20" cy="20" r="20" fill="#00A9E7"/>
<path d="M30.3182 21.0682C30.3864 20.5227 30.4545 20.0455 30.4545 19.5C30.4545 14.0455 26.0227 9.54545 20.5 9.54545C19.9545 9.54545 19.4773 9.61364 18.9318 9.68182C18.0455 9.20455 17.0909 9 16.1364 9C12.7273 9 10 11.7273 10 15.1364C10 16.0909 10.2045 17.0455 10.6818 17.9318C10.6136 18.4773 10.5455 18.9545 10.5455 19.5C10.5455 24.9545 14.9773 29.4545 20.5 29.4545C21.0455 29.4545 21.5227 29.3864 22.0682 29.3182C22.9545 29.7273 23.9091 30 24.8636 30C28.2727 30 31 27.2727 31 23.8636C31 22.9091 30.7273 21.9545 30.3182 21.0682ZM24.6591 23.1136C24.4545 23.5227 24.1818 23.8636 23.7727 24.1364C23.3636 24.4091 22.9545 24.6136 22.4091 24.75C21.8636 24.8864 21.25 24.9545 20.5682 24.9545C19.1364 24.9545 17.9773 24.6136 17.1591 24C16.6818 23.5909 16.2727 23.1136 16.0682 22.5C15.7955 21.9545 16.2727 21.2727 16.9545 21.2727H17.1591C17.5682 21.2727 17.9773 21.5455 18.1136 21.8864C18.25 22.2273 18.4545 22.5 18.7273 22.7045C19.1364 23.0455 19.75 23.1818 20.5 23.1818C21.1818 23.1818 21.7273 23.0455 22.1364 22.8409C22.5455 22.6364 22.75 22.2273 22.75 21.8182C22.75 21.6136 22.6818 21.4773 22.6136 21.3409C22.5455 21.2045 22.3409 21.0682 22.2045 21C22 20.8636 21.7955 20.7955 21.4545 20.7273C21.1818 20.6591 20.8409 20.5227 20.4318 20.4545L20.0227 20.3182C19.5455 20.1818 19 20.0455 18.5909 19.9091C18.1136 19.7727 17.7045 19.5682 17.3636 19.3636C17.0227 19.1591 16.75 18.8864 16.5455 18.4773C16.3409 18.1364 16.2727 17.6591 16.2727 17.1136C16.2727 16.5682 16.4091 16.0909 16.6136 15.6818C16.8182 15.2727 17.1591 14.9318 17.5 14.7273C17.9091 14.4545 18.3182 14.25 18.8636 14.1818C19.3409 14.0455 19.8864 13.9773 20.5 13.9773C21.1818 13.9773 21.7273 14.0455 22.2727 14.1818C22.8182 14.3182 23.2273 14.5227 23.6364 14.8636C24.0455 15.1364 24.3182 15.4773 24.5227 15.9545C24.8636 16.5682 24.3864 17.3864 23.6364 17.3864H23.4318C23.0227 17.3864 22.6818 17.1818 22.4773 16.8409C22.3409 16.6364 22.2045 16.4318 22 16.2273C21.6591 15.9545 21.1136 15.8182 20.5 15.8182C19.8864 15.8182 19.4091 15.9545 19.0682 16.1591C18.7273 16.3636 18.5909 16.7045 18.5909 17.0455C18.5909 17.25 18.6591 17.3864 18.7273 17.5227C18.7955 17.6591 18.9318 17.7955 19.1364 17.8636C19.3409 17.9318 19.5455 18.0682 19.8182 18.1364C20.0909 18.2045 20.4318 18.2727 20.8409 18.4091C21.25 18.4773 21.5909 18.6136 22 18.6818C22.3409 18.75 22.6818 18.8864 23.0227 18.9545C23.3636 19.0909 23.6364 19.2273 23.9091 19.3636C24.1818 19.5 24.3864 19.7045 24.5909 19.9091C24.7955 20.1136 24.9318 20.3864 25 20.6591C25.1364 20.9318 25.1364 21.3409 25.1364 21.75C25 22.2273 24.8636 22.7045 24.6591 23.1136Z" fill="white"/>
</svg>
