<svg width="85" height="69" viewBox="0 0 85 69" fill="none" xmlns="http://www.w3.org/2000/svg">
<path d="M82.9875 0.200073H2.008C0.899062 0.200073 0 1.09895 0 2.20788V58.0916C0 59.1998 0.899062 60.0975 2.008 60.0975H32.4594V64.9134C32.4594 64.9848 32.4733 65.049 32.4805 65.118H28.1107C27.0947 65.118 26.2701 65.9426 26.2701 66.9584C26.2701 67.9745 27.0947 68.7999 28.1107 68.7999H57.8927C58.9084 68.7999 59.7331 67.9753 59.7331 66.9584C59.7331 65.9426 58.9084 65.118 57.8927 65.118H53.523C53.5291 65.0513 53.5447 64.9848 53.5447 64.9134V60.0975H82.9918C84.1 60.0975 85 59.199 85 58.0916V2.20788C84.9966 1.09895 84.0983 0.200073 82.9875 0.200073ZM79.3071 49.3319C79.3071 50.441 78.4082 51.3399 77.2998 51.3399H7.69605C6.58786 51.3399 5.68861 50.4412 5.68861 49.3319V6.95892C5.68861 5.85073 6.58786 4.95148 7.69605 4.95148H77.2998C78.408 4.95148 79.3071 5.85054 79.3071 6.95892V49.3319Z" fill="black"/>
</svg>
