<svg width="85" height="85" viewBox="0 0 85 85" fill="none" xmlns="http://www.w3.org/2000/svg">
<path d="M73.5582 0H11.4427C7.38681 0 4.08691 3.29973 4.08691 7.35582V17.1635H80.9138V7.35582C80.914 3.29973 77.6141 0 73.5582 0ZM58.844 13.4856H53.9414C52.5872 13.4856 51.4895 12.3878 51.4895 11.0337C51.4895 9.67971 52.5874 8.58185 53.9414 8.58185H58.844C60.1982 8.58185 61.2959 9.67971 61.2959 11.0337C61.2959 12.3878 60.198 13.4856 58.844 13.4856ZM71.9236 13.4856H67.021C65.6668 13.4856 64.5691 12.3878 64.5691 11.0337C64.5691 9.67971 65.6669 8.58185 67.021 8.58185H71.9236C73.2777 8.58185 74.3755 9.67971 74.3755 11.0337C74.3755 12.3878 73.2776 13.4856 71.9236 13.4856Z" fill="black"/>
<path d="M59.7229 53.1699C58.2759 54.0602 56.4754 55.1682 53.1251 55.1682C49.7747 55.1682 47.9741 54.0602 46.5274 53.1699C45.3285 52.4318 44.462 51.899 42.4997 51.899C40.5374 51.899 39.6712 52.4321 38.4722 53.1699C37.0254 54.0601 35.2251 55.1682 31.8749 55.1682C28.5247 55.1682 26.7243 54.0602 25.2776 53.1697C24.7425 52.8405 24.2737 52.553 23.7451 52.3347C24.3921 62.118 32.5562 69.8799 42.5004 69.8799C52.4446 69.8799 60.6087 62.118 61.2559 52.3347C60.7271 52.553 60.2581 52.8405 59.7229 53.1699Z" fill="black"/>
<path d="M42.5001 32.2838C33.4277 32.2838 25.8356 38.7443 24.083 47.3062C25.74 47.6989 26.8751 48.3953 27.8472 48.9936C29.0462 49.7316 29.9125 50.2645 31.8746 50.2645C33.8368 50.2645 34.703 49.7314 35.902 48.9938C37.3488 48.1034 39.1491 46.9953 42.4995 46.9953C45.8498 46.9953 47.6504 48.1033 49.0971 48.9936C50.296 49.7317 51.1625 50.2645 53.1248 50.2645C55.0871 50.2645 55.9535 49.7314 57.1525 48.9938C58.1247 48.3953 59.2601 47.6989 60.9172 47.3064C59.1646 38.7441 51.5725 32.2838 42.5001 32.2838Z" fill="black"/>
<path d="M4.08691 22.0673V77.6441C4.08691 81.7001 7.38664 85 11.4427 85H73.5581C77.6141 85 80.914 81.7002 80.914 77.6441V22.0673H4.08691ZM42.5004 74.7837C29.4312 74.7837 18.7986 64.1511 18.7986 51.0818C18.7986 50.4456 18.8246 49.8153 18.8739 49.1917C18.8743 49.1887 18.8744 49.1857 18.8748 49.1828C19.8455 36.998 30.0705 27.3799 42.5004 27.3799C54.9304 27.3799 65.1556 36.998 66.1261 49.1828C66.1265 49.1857 66.1266 49.1887 66.127 49.1917C66.1764 49.8154 66.2023 50.4456 66.2023 51.0818C66.2023 64.1509 55.5697 74.7837 42.5004 74.7837Z" fill="black"/>
</svg>
